PathFileType	4	(X/Y/Z)	Patient4_TMGait_0pt2_01_right_18.trc.trc
DataRate	CameraRate	NumFrames	NumMarkers	Units	OrigDataRate	OrigDataStartFrame	OrigNumFrames
41.543026706231	41.543026706231	7	33	mm	41.543026706231	106	       141
Frame#	Time	Sacral			L.Shoulder			Chest			R.Shoulder			Neck			R.ASIS			L.ASIS			R.Thigh.Superior			R.Thigh.Lateral			R.Thigh.Inferior			R.Patella			L.Thigh.Superior			L.Thigh.Lateral			L.Thigh.Inferior			L.Patella			L.Shank.Superior			L.Shank.Lateral			L.Shank.Inferior			R.Shank.Superior			R.Shank.Lateral			R.Shank.Inferior			R.Heel			R.Midfoot.Superior			R.Midfoot.Lateral			R.Toe			L.Heel			L.Midfoot.Lateral			L.Midfoot.Superior			L.Toe			L.Elbow			L.Wrist			R.Elbow			R.Wrist			
		X1	Y1	Z1	X2	Y2	Z2	X3	Y3	Z3	X4	Y4	Z4	X5	Y5	Z5	X6	Y6	Z6	X7	Y7	Z7	X8	Y8	Z8	X9	Y9	Z9	X10	Y10	Z10	X11	Y11	Z11	X12	Y12	Z12	X13	Y13	Z13	X14	Y14	Z14	X15	Y15	Z15	X16	Y16	Z16	X17	Y17	Z17	X18	Y18	Z18	X19	Y19	Z19	X20	Y20	Z20	X21	Y21	Z21	X22	Y22	Z22	X23	Y23	Z23	X24	Y24	Z24	X25	Y25	Z25	X26	Y26	Z26	X27	Y27	Z27	X28	Y28	Z28	X29	Y29	Z29	X30	Y30	Z30	X31	Y31	Z31	X32	Y32	Z32	X33	Y33	Z33	

106	42.707500000000	674.614733756508	991.307778163129	401.043040426935	861.186028742653	1424.624636619414	235.120880938580	952.920754705571	1352.435082973730	400.977055591671	860.700658152975	1417.909092141894	572.964878654531	830.301274108503	1483.991837883678	393.775283545432	899.877371022850	931.862740221626	530.072266354758	903.383249244713	952.027281217627	255.283838545766	977.120178364429	749.468684541858	505.746588622237	925.787844344797	634.488239424110	580.742830063036	1013.481063693987	586.208430806689	504.315402177301	1023.812558324642	474.868570526951	531.278825995225	965.011286856661	747.766647921918	304.784706650687	897.965315188175	615.456293225564	249.829195202830	982.336947999280	553.222844580112	329.033094294685	987.797560872420	479.855276941532	342.135576935870	952.307552880404	403.751351232017	336.438719847273	858.296080954244	295.340645982796	279.441175875422	885.074054124074	185.139864470483	362.886835597319	942.973067696934	405.836258046613	545.614123533729	820.819268304453	377.575370289832	612.184604674290	799.687872032434	265.626259093834	571.612780961927	591.886468020977	211.380519832434	553.630151262386	760.048016053978	149.630731968224	596.954727824559	650.616269364184	154.706220300348	629.729097729921	822.119543552260	38.876808894042	628.697956616565	739.372121674918	38.168674063234	394.735590411828	821.187448746640	35.243644900967	321.576416123792	901.757097773353	95.329851221163	357.091995174645	1032.045760687121	44.254595211884	341.948653193807	910.734242303157	1082.056560073112	98.120240972531	1062.722160721134	870.353772319020	121.396458705837	840.813914304212	1059.247666792434	672.699034452716	944.229471972205	821.980075050607	675.878508925301	
107	42.731571428571	675.147639983538	989.045256964525	397.082859332484	863.951350342185	1423.633082135413	234.895282861593	953.113714937985	1350.786101334884	401.805590603169	858.004321177149	1415.218711166561	572.710527222910	830.740431557163	1482.218709367616	393.610737626149	899.492116215343	930.552169572279	528.246890065350	905.514125506903	950.499538237096	253.403013159368	979.710367027129	750.476809158639	503.645650984767	930.858216323490	634.947339685540	579.058605192506	1019.069861097324	588.078379348876	502.268862873090	1032.214936723301	477.563931008474	529.402381643592	967.166576853862	746.164247156506	303.366753536336	900.528698819472	613.444615803113	248.865146124864	984.726903413740	551.555322513361	328.759412726632	990.317381873573	477.894418448062	342.130712896727	953.364427995389	401.636068604584	336.585864647753	857.906001602632	294.525290778359	279.154137833740	882.221737680420	184.019732346065	362.874150824153	953.562709803604	406.586680862869	544.127483470310	832.891591645211	374.692152505526	610.832331193876	815.528363198833	262.482234911563	570.389423899226	610.687842520139	200.007539148467	552.978632896295	780.631189819591	147.058817890386	595.677740320168	671.993311170241	147.018852175455	629.109056170894	847.710905220297	39.392955448093	627.748109087493	734.600362037601	38.312978792288	394.643563664959	816.455592454761	35.280735230349	321.528010744574	897.155896499491	95.125777818166	357.168245540245	1027.405253317244	43.654528010410	341.963135494269	923.494313773892	1084.176083766368	95.058418054952	1088.734959688526	882.507723861949	119.859030328690	817.339583958673	1059.347772026748	671.870683243958	895.770666560488	811.169293926254	678.528582914802	
108	42.755642857143	675.751349547786	987.528494052889	393.368798307457	867.193365817658	1423.055470471117	234.883100664278	953.435672531526	1349.670599043738	403.016975567248	855.199327907581	1413.416921870531	572.467783672412	831.352031325642	1481.005073253157	393.484160774551	898.831292712824	929.810169089468	527.096128493215	907.594291197839	949.316810420324	252.284728597209	981.066074817178	751.500193309116	502.450085192524	933.944720288894	635.701022158222	578.173170066401	1022.424550479229	589.864077542890	501.075063820194	1038.265218960755	480.736952649855	528.338902042369	968.810268828366	744.690594410244	302.610095341424	902.287819975651	611.835241997019	248.229149017136	985.985251095117	550.021435226577	328.843107377816	991.485681458242	476.170812091929	342.407640734402	953.313159315166	399.881415273873	336.884498630714	856.735503115267	293.866504338654	278.967118139720	878.986399229719	183.117083577436	362.896965803261	962.833962298942	407.553926910003	543.476963448222	844.647145100769	370.345830449894	610.476811577841	832.720762704077	257.939261717815	570.051587028082	632.483044647604	184.343380636316	553.387102897922	804.341968765181	142.761828797497	595.248863964920	696.962771657310	136.073096486427	629.440019422628	877.693412593734	39.983159108463	627.416344915574	729.812416932002	38.452682361048	394.546383720975	811.707428458234	35.317628840837	321.481091129090	892.513294066305	94.955743802490	357.228039434797	1022.731621443530	43.133023041391	341.978699935595	936.323674388731	1086.981164204404	92.427702236520	1113.932916648408	896.050392967689	119.112521367948	794.206690790396	1061.680531616602	670.938246477605	849.162064512326	806.068140033912	680.015968701334	
109	42.779714285714	676.386795713799	986.819811082312	389.896703210976	870.900842325190	1422.939448423036	235.083419478449	953.853705988907	1349.158874045646	404.613547818600	852.261386808328	1412.595943266920	572.225429024893	832.113526196043	1480.415129579961	393.368488806601	897.845461923112	929.696132089312	526.647591349131	909.612400425956	948.552054720645	251.963424271534	981.237428903891	752.593153495877	502.166363805149	935.133153258138	636.747122305567	578.066015796402	1023.685678631473	591.584037221534	500.743357633437	1042.071586665793	484.355947410447	528.088708009689	969.888290181996	743.389697055091	302.504609423422	903.162375516939	610.693302970098	247.903265288392	986.030611133455	548.670162118464	329.239842521663	991.213295591464	474.738265387954	342.917836528322	952.082456386847	398.538866080628	337.292608186836	854.730609028989	293.389813919071	278.864508435857	875.346631858825	182.452584725408	362.941511685996	970.805522393979	408.822088237380	543.642924628797	856.099758416167	364.923774122362	611.102987969850	851.030693266370	252.499076616256	570.591889753690	657.036055878697	165.562840445283	554.815581609985	830.666375270793	137.327665019692	595.673202913090	725.053061143966	122.826084292161	630.674719456087	911.135821422536	40.927909584561	627.679917017914	725.010224176990	38.583945493767	394.447110137670	806.940808051605	35.353080138551	321.436336571873	887.828661411298	94.821575196030	357.268387639136	1018.023515584006	42.696720710026	341.995461980943	949.112246298628	1090.420562968120	90.328040619313	1138.039339377406	910.764819045091	119.261942712576	771.743515610867	1066.049217395555	669.724849846775	805.457134034841	805.942427974940	680.332169152534	
110	42.803785714286	677.015135722076	986.906620231325	386.686657410379	875.017865248131	1423.276092029802	235.500610866182	954.328660561979	1349.259451742562	406.583064589939	849.189056927559	1412.763161749903	571.985515399875	832.996667946451	1480.450623332348	393.255470731590	896.513096011674	930.207831426540	526.899672782366	911.569991419040	948.240189722126	252.431510050844	980.335995627030	753.795214707506	502.758184602114	934.616072072183	638.059512984018	578.681156158689	1023.114771009503	593.264740387799	501.251265451565	1043.861638611262	488.356940888109	528.607713161968	970.375853565695	742.285360467213	303.013075307630	903.128524794016	610.043471966718	247.866261587646	984.863205685304	547.532065320569	329.899160116741	989.510642636915	473.626817632089	343.612479733358	949.684788948191	397.626327217970	337.774445305829	851.897245050464	293.104867474392	278.837186416964	871.309762180298	182.027164997830	362.999662603074	977.540289773265	410.451442497145	544.546101474644	867.228463456178	358.900824845933	612.616527076713	870.062199571756	246.747320636078	571.913014541919	683.798205506977	145.106901442071	557.123509807478	858.816495716097	131.456884468838	596.848202444648	755.473775270828	108.424202849787	632.659287778658	946.781931804820	42.507731951609	628.404090738596	720.195991975032	38.703130875110	394.349131570269	802.154911701135	35.386228464561	321.394695632494	883.103543510765	94.722121621704	357.289814226742	1013.281595005575	42.346121494784	342.013224764623	961.733919637754	1094.376961344488	88.863464590056	1160.821291414800	926.356829681172	120.391606303065	750.316413416983	1072.126011848938	668.095143755054	765.531058160701	809.823211888292	679.527388552176	
111	42.827857142857	677.603042505357	987.706375269731	383.781325184557	879.447676428128	1424.005307059471	236.143217758022	954.819945123614	1349.921821726438	408.899086510706	846.005558482330	1413.841831479090	571.764225385113	833.970221707530	1481.054780743457	393.156944008717	894.845110577214	931.283117917029	527.820029354010	913.474221273856	948.373825495148	253.641369201866	978.529853570391	755.126464057556	504.157000900309	932.670426016372	639.588633944370	579.941760352244	1021.067766225876	594.931255966788	502.557075609724	1043.950723029827	492.640501016166	529.825660802718	970.276818212996	741.380006259498	304.075537978780	902.215846052829	609.870675296196	248.091587640006	982.556655231620	546.616555425600	330.765334138210	986.475797507335	472.839971577742	344.441840232681	946.206927744893	397.128665391950	338.299109389537	848.293371239909	293.004827604685	278.878515157078	866.908118528487	181.823829693232	363.067347584627	983.125945753075	412.459999693590	546.070125552435	877.952830258984	352.772142390849	614.863461496830	889.277232715176	241.260113200856	573.855033807074	711.924533174704	124.495009785273	560.094388236260	887.786769260397	125.835339855186	598.597183205558	787.156134843162	94.035486400038	635.165112657431	983.155749369782	44.910231308998	629.384140094730	715.371196631295	38.807269416595	394.255756473484	797.349977006467	35.416352628635	321.357136002364	878.340975093765	94.653656620646	357.295391438400	1008.507983791231	42.076325054787	342.031639094481	974.050981244096	1098.677675054825	88.134281532297	1182.091365393336	942.474149337441	122.560075229053	730.297832370469	1079.473097728154	665.979300074302	730.055768500801	816.607240917471	677.706327110781	
112	42.851928571429	678.126810124833	989.080431570014	381.240535402183	884.061849583600	1425.028392141425	237.022848871119	955.290077435882	1351.047069622117	411.523999518135	842.756661987583	1415.683264626769	571.592051626968	835.002075175596	1482.123890773051	393.104566738633	892.885586641980	932.809428045896	529.348107035855	915.328365903473	948.905096893410	255.512364306276	976.032619059143	756.584532767380	506.274134339387	929.624758260334	641.262049995900	581.759154823078	1017.955443651952	596.596370892167	504.606144213775	1042.699893322630	497.071991890314	531.658704478754	969.624385587151	740.657180186478	305.613457705362	900.499932688000	610.125644628582	248.546617943718	979.245351295112	545.912133647312	331.777956859991	982.276977853083	472.355075364118	345.354518340143	941.795073611600	397.002012506766	338.838701997718	844.017245972170	293.068572449505	278.980763995672	862.193506258371	181.811426290114	363.142203844377	987.654581925320	414.810786620824	548.085094098874	888.119707896348	346.985260785173	617.653987403316	908.039019829605	236.515291695070	576.230839927731	740.341467198617	105.127765379807	563.469396855097	916.444825426531	121.017897274375	600.715481525010	818.839222766458	80.688740487257	637.934025556649	1018.700508512154	48.159668933231	630.407900232850	710.536320291484	38.894596352720	394.169748441640	792.527068578207	35.442771888836	321.324324642180	873.545004927441	94.610608539480	357.289339084483	1003.705850414309	41.877987125182	342.050284251745	985.918255060670	1103.112664369922	88.228526343095	1201.704633193465	958.731001940843	125.797442393362	712.033823259941	1087.578660207944	663.386397563297	699.494948540645	825.160546403039	675.022505414371	
